<svg width="179" height="183" viewBox="0 0 179 183" fill="none" xmlns="http://www.w3.org/2000/svg">
<g clip-path="url(#clip0_1205_2379)">
<path d="M8.05603 135.742H1.228C0.906982 135.73 0.593394 135.84 0.349366 136.05C0.239687 136.14 0.151415 136.253 0.0909813 136.382C0.0305473 136.51 -0.000544443 136.651 7.21454e-06 136.793V161.14C7.21454e-06 161.303 0.0443231 161.464 0.12823 161.604C0.212138 161.744 0.332494 161.859 0.476394 161.936C0.798251 162.122 1.16335 162.221 1.535 162.221C1.90665 162.221 2.27175 162.122 2.59361 161.936C2.73393 161.858 2.84977 161.742 2.92827 161.601C3.00677 161.46 3.04483 161.301 3.03821 161.14V151.785H7.91841C9.9698 151.88 11.9825 151.203 13.5608 149.885C14.9723 148.611 15.678 146.625 15.678 143.928V143.599C15.678 140.895 14.9723 138.913 13.5608 137.653C12.0273 136.35 10.0642 135.669 8.05603 135.742ZM12.7033 144.077C12.8144 145.475 12.3691 146.861 11.4648 147.931C10.9964 148.377 10.442 148.722 9.83571 148.944C9.22947 149.167 8.58418 149.263 7.93957 149.226H3.08056V138.502H7.96073C8.60413 138.46 9.24941 138.551 9.85603 138.77C10.4627 138.989 11.0176 139.332 11.4859 139.776C12.3903 140.847 12.8355 142.232 12.7245 143.631L12.7033 144.077Z" fill="white"/>
<path d="M28.4873 137.642C27.0794 138.905 26.3701 140.912 26.3701 143.63V154.545C26.3701 157.285 27.0688 159.27 28.4873 160.534C30.1184 161.779 32.1117 162.453 34.1615 162.453C36.2113 162.453 38.2045 161.779 39.8356 160.534C41.2471 159.274 41.9528 157.278 41.9528 154.545V143.63C41.9528 140.912 41.2435 138.905 39.8356 137.642C38.2002 136.406 36.2086 135.738 34.1615 135.738C32.1143 135.738 30.1227 136.406 28.4873 137.642ZM38.904 154.545C39.0087 155.946 38.5644 157.333 37.6655 158.41C37.1977 158.856 36.6431 159.2 36.0365 159.421C35.4299 159.643 34.7844 159.736 34.1403 159.695C30.9856 159.695 29.4083 157.978 29.4083 154.545V143.63C29.4083 140.211 30.9856 138.491 34.1403 138.491C34.7842 138.452 35.4292 138.546 36.0355 138.767C36.6418 138.988 37.1966 139.331 37.6655 139.776C38.5698 140.846 39.0151 142.232 38.904 143.63V154.545Z" fill="white"/>
<path d="M64.056 147.952C62.8704 147.421 61.7059 146.943 60.5309 146.529C59.4428 146.17 58.4306 145.612 57.5456 144.883C57.1522 144.553 56.8404 144.135 56.6347 143.664C56.429 143.192 56.335 142.679 56.36 142.165C56.3164 141.61 56.4185 141.053 56.6563 140.55C56.894 140.047 57.259 139.615 57.7149 139.298C58.781 138.67 60.005 138.364 61.2401 138.417C62.3955 138.399 63.5407 138.635 64.5959 139.107C65.1238 139.36 65.6686 139.577 66.2262 139.755C66.4217 139.754 66.6132 139.699 66.7795 139.596C66.9458 139.493 67.0803 139.346 67.1683 139.171C67.381 138.855 67.5053 138.489 67.5283 138.109C67.5283 137.387 66.8402 136.792 65.4852 136.346C64.0981 135.909 62.6518 135.69 61.1978 135.699C60.2632 135.691 59.3314 135.802 58.4243 136.028C57.5379 136.258 56.6894 136.616 55.9048 137.09C55.071 137.595 54.4016 138.333 53.9781 139.213C53.477 140.244 53.2302 141.38 53.2583 142.526C53.1958 143.951 53.6258 145.353 54.4756 146.497C55.2651 147.496 56.2914 148.281 57.4609 148.78C58.6677 149.289 59.8216 149.746 60.9861 150.181C62.1026 150.586 63.1151 151.236 63.9502 152.082C64.3599 152.512 64.6796 153.021 64.8905 153.577C65.1014 154.133 65.1992 154.726 65.1781 155.32C65.2193 155.945 65.1198 156.571 64.8871 157.152C64.6544 157.733 64.2944 158.253 63.8337 158.676C62.7828 159.488 61.4742 159.892 60.1497 159.812C59.2473 159.834 58.3489 159.683 57.5032 159.366C56.8649 159.14 56.2833 158.778 55.7989 158.304C55.4284 157.932 55.079 157.593 54.7403 157.295C54.5261 157.052 54.2342 156.89 53.9146 156.839C53.7363 156.855 53.5641 156.912 53.4116 157.006C53.2591 157.1 53.1305 157.228 53.0359 157.38C52.7794 157.7 52.6344 158.096 52.623 158.506C52.623 159.387 53.3641 160.279 54.8885 161.182C56.5392 162.127 58.4193 162.594 60.3191 162.53C62.4009 162.635 64.4467 161.957 66.0568 160.629C66.8007 159.903 67.376 159.021 67.7419 158.047C68.1079 157.073 68.2553 156.029 68.174 154.991C68.2353 153.406 67.8064 151.841 66.946 150.511C66.2213 149.42 65.225 148.538 64.056 147.952Z" fill="white"/>
<path d="M93.0619 135.742H78.3472C78.191 135.732 78.0351 135.764 77.8956 135.835C77.756 135.906 77.6378 136.013 77.5533 136.145C77.3583 136.418 77.2545 136.745 77.2569 137.08C77.2553 137.444 77.3744 137.799 77.5956 138.089C77.6785 138.222 77.7963 138.331 77.9363 138.402C78.0763 138.473 78.2331 138.504 78.3896 138.492H84.2437V161.14C84.237 161.301 84.2751 161.461 84.3536 161.601C84.4321 161.742 84.548 161.858 84.6883 161.936C85.0102 162.123 85.3753 162.221 85.7469 162.221C86.1186 162.221 86.4837 162.123 86.8055 161.936C86.9459 161.858 87.0617 161.742 87.1402 161.601C87.2187 161.461 87.2567 161.301 87.2501 161.14V138.492H93.0619C93.2189 138.5 93.3751 138.465 93.5145 138.392C93.654 138.32 93.7718 138.211 93.8558 138.078C94.0489 137.782 94.1485 137.434 94.1417 137.08C94.1429 136.746 94.0432 136.421 93.8558 136.145C93.7713 136.013 93.6532 135.906 93.5136 135.835C93.374 135.764 93.218 135.732 93.0619 135.742Z" fill="white"/>
<path d="M122.206 135.742C121.296 135.742 120.491 136.379 119.792 137.664L114.086 148.6L108.412 137.664C107.756 136.379 106.951 135.742 105.988 135.742C105.83 135.721 105.67 135.721 105.512 135.742C105.172 135.809 104.871 136.006 104.674 136.291C104.476 136.577 104.397 136.928 104.453 137.271V161.14C104.443 161.312 104.485 161.484 104.571 161.633C104.658 161.782 104.786 161.902 104.94 161.979C105.257 162.178 105.625 162.281 105.999 162.276C106.378 162.272 106.746 162.154 107.057 161.936C107.198 161.858 107.313 161.742 107.392 161.601C107.47 161.461 107.509 161.301 107.502 161.14V141.932L112.964 152.401C113.04 152.646 113.188 152.862 113.388 153.021C113.588 153.18 113.832 153.275 114.086 153.293C114.35 153.28 114.604 153.188 114.815 153.029C115.027 152.871 115.186 152.652 115.272 152.401L120.724 142.113V161.108C120.723 161.269 120.764 161.428 120.844 161.568C120.924 161.708 121.04 161.824 121.179 161.904C121.501 162.091 121.866 162.189 122.238 162.189C122.609 162.189 122.974 162.091 123.296 161.904C123.437 161.826 123.554 161.71 123.634 161.57C123.714 161.429 123.755 161.27 123.751 161.108V137.228C123.773 137.105 123.773 136.98 123.751 136.857C123.727 136.68 123.667 136.51 123.576 136.357C123.484 136.203 123.362 136.071 123.217 135.966C123.073 135.862 122.909 135.788 122.735 135.75C122.561 135.711 122.381 135.709 122.206 135.742Z" fill="white"/>
<path d="M143.399 135.752C142.34 135.752 141.769 136.113 141.557 136.814L134.147 160.694C134.106 160.784 134.081 160.881 134.073 160.98C134.073 161.18 134.13 161.376 134.237 161.545C134.344 161.714 134.496 161.85 134.676 161.936C135.039 162.171 135.462 162.296 135.894 162.297C136.124 162.322 136.355 162.265 136.549 162.138C136.742 162.01 136.885 161.818 136.952 161.596L138.54 156.287H148.068L149.645 161.596C149.724 161.81 149.87 161.992 150.06 162.117C150.251 162.241 150.477 162.3 150.704 162.286C151.17 162.295 151.629 162.17 152.027 161.925C152.194 161.844 152.337 161.719 152.441 161.564C152.545 161.41 152.607 161.23 152.62 161.044C152.63 161.009 152.63 160.972 152.62 160.938C152.609 160.896 152.609 160.852 152.62 160.81L145.209 136.814C145.029 136.113 144.426 135.752 143.399 135.752ZM139.334 153.718L143.378 140.169L147.422 153.718H139.334Z" fill="white"/>
<path d="M178.545 135.996C178.219 135.82 177.856 135.729 177.486 135.729C177.117 135.729 176.753 135.82 176.427 135.996C176.289 136.072 176.174 136.185 176.094 136.321C176.014 136.457 175.972 136.613 175.972 136.771V155.342L166.974 137.653C166.713 137.103 166.355 136.607 165.915 136.187C165.551 135.89 165.094 135.732 164.624 135.741C163.565 135.741 163.11 136.092 163.11 136.803V161.15C163.103 161.311 163.142 161.471 163.22 161.611C163.299 161.752 163.414 161.868 163.555 161.946C163.877 162.133 164.242 162.231 164.613 162.231C164.985 162.231 165.35 162.133 165.672 161.946C165.812 161.868 165.928 161.752 166.007 161.611C166.085 161.471 166.123 161.311 166.117 161.15V142.622L175.517 160.853C175.672 161.242 175.935 161.579 176.274 161.824C176.614 162.068 177.016 162.21 177.433 162.233C177.808 162.242 178.176 162.138 178.492 161.936C178.633 161.858 178.751 161.742 178.831 161.602C178.911 161.461 178.951 161.301 178.947 161.139V136.771C178.953 136.618 178.919 136.466 178.848 136.33C178.778 136.194 178.673 136.079 178.545 135.996Z" fill="white"/>
<path d="M121.846 28.4555C121.768 28.4938 121.7 28.5471 121.643 28.6124C121.587 28.6777 121.544 28.7537 121.518 28.8358C121.491 28.9179 121.481 29.0045 121.488 29.0906C121.495 29.1766 121.52 29.2603 121.56 29.3368C121.725 29.6772 121.79 30.058 121.747 30.4343C121.704 30.8105 121.555 31.1666 121.316 31.4604C121.242 31.5563 121.196 31.6709 121.182 31.7916C121.169 31.9123 121.189 32.0343 121.241 32.1442C121.292 32.2541 121.373 32.3476 121.474 32.4143C121.575 32.481 121.693 32.5183 121.814 32.5222C121.911 32.5211 122.007 32.4987 122.095 32.4566C122.183 32.4144 122.26 32.3534 122.322 32.278C122.726 31.7885 122.98 31.1913 123.051 30.5596C123.123 29.9278 123.009 29.2889 122.724 28.721C122.684 28.6454 122.63 28.5785 122.564 28.5242C122.498 28.4698 122.422 28.4292 122.34 28.4045C122.258 28.3798 122.173 28.3716 122.088 28.3804C122.003 28.3891 121.921 28.4147 121.846 28.4555Z" fill="white"/>
<path d="M96.6932 0.466876C85.6014 -0.960336 74.3367 0.943521 64.3237 5.93769C54.3107 10.9319 45.9991 18.792 40.4399 28.5242C34.8807 38.2564 32.3237 49.4235 33.0922 60.6134C33.8607 71.8032 37.9201 82.5131 44.7572 91.3889C51.5942 100.265 60.9019 106.907 71.503 110.477C82.1042 114.047 93.5227 114.384 104.315 111.445C115.107 108.506 124.787 102.423 132.132 93.9653C139.477 85.5077 144.157 75.0554 145.58 63.9302C147.487 49.0123 143.408 33.9453 134.24 22.0436C125.072 10.142 111.566 2.38065 96.6932 0.466876ZM108.338 35.8458C107.29 35.8647 106.29 36.2866 105.543 37.0244L84.5933 58.0798L80.1154 53.5884C100.758 32.9259 104.485 32.6923 108.338 35.8458ZM85.419 58.823L106.348 37.8314C106.895 37.2861 107.635 36.98 108.407 36.98C109.178 36.98 109.918 37.2861 110.466 37.8314C110.747 38.1068 110.968 38.4377 111.116 38.8031C111.264 39.1686 111.334 39.5608 111.323 39.955C111.313 40.3587 111.219 40.7559 111.048 41.1214C110.876 41.4869 110.631 41.8128 110.328 42.0785L88.1926 61.5943L85.419 58.823ZM86.9752 62.0933L81.788 63.2188C81.7263 63.2346 81.6612 63.2294 81.6029 63.2039C81.5446 63.1783 81.4964 63.134 81.4661 63.078C81.4357 63.0219 81.4248 62.9573 81.4352 62.8943C81.4456 62.8314 81.4766 62.7737 81.5233 62.7304L84.5615 59.6724L86.9752 62.0933ZM73.7638 59.9697L79.2897 54.4272L83.4289 58.5788L74.1025 60.5962C74.0238 60.6162 73.9405 60.6081 73.8671 60.5732C73.7937 60.5383 73.7347 60.4789 73.7002 60.4051C73.673 60.3696 73.653 60.329 73.6414 60.2857C73.6299 60.2425 73.6269 60.1973 73.6329 60.1529C73.6388 60.1085 73.6534 60.0657 73.6758 60.027C73.6983 59.9883 73.7282 59.9544 73.7638 59.9273V59.9697ZM56.5825 88.6381C56.5156 88.633 56.4517 88.6081 56.3989 88.5665C56.3462 88.5249 56.3069 88.4686 56.2861 88.4045C56.2646 88.3391 56.2611 88.269 56.276 88.2017C56.2909 88.1344 56.3237 88.0724 56.3708 88.0223L60.8275 83.5522L66.5864 89.3283L56.5825 88.6381ZM68.0155 82.7027C67.8022 82.811 67.6316 82.9885 67.5316 83.2063C67.4317 83.4242 67.4082 83.6696 67.465 83.9025L68.4177 88.0011C68.4455 88.1264 68.4321 88.2573 68.3795 88.3743C68.3269 88.4913 68.238 88.5881 68.126 88.6502C68.014 88.7124 67.885 88.7365 67.7582 88.719C67.6315 88.7015 67.5138 88.6433 67.4227 88.5532L61.6427 82.7558L79.3638 64.9814L87.9385 63.1339L92.0565 67.2643C86.1283 72.3821 78.0511 77.5743 68.0155 82.6284V82.7027ZM92.8928 66.4998L88.9336 62.5287L111.059 42.9492C111.264 42.7696 111.452 42.5705 111.62 42.3546C110.932 48.7147 102.071 57.6975 92.8928 66.4254V66.4998ZM110.127 35.952C108.919 34.7503 108.095 33.2155 107.76 31.5429C107.424 29.8702 107.593 28.1353 108.243 26.5587C108.893 24.9822 109.996 23.6352 111.412 22.6892C112.828 21.7432 114.492 21.2409 116.193 21.2462C118.207 21.2444 120.159 21.9507 121.708 23.2423L114.107 30.8023C114.001 30.9097 113.94 31.0543 113.938 31.2058C113.938 31.2794 113.953 31.3522 113.982 31.4197C114.011 31.4873 114.054 31.5481 114.107 31.5986L119.983 37.5022C118.377 38.3011 116.562 38.5741 114.794 38.2826C113.025 37.9911 111.393 37.1499 110.127 35.8777V35.952ZM122.269 35.952C121.883 36.3485 121.457 36.7043 120.999 37.0138L115.293 31.2164L122.523 23.9643C124.019 25.6013 124.826 27.7545 124.777 29.9743C124.728 32.1942 123.826 34.3092 122.259 35.8777L122.269 35.952Z" fill="white"/>
</g>
<defs>
<clipPath id="clip0_1205_2379">
<rect width="179" height="183" fill="white"/>
</clipPath>
</defs>
</svg>
