<svg fill="none" height="80" viewBox="0 0 260 80" width="260" xmlns="http://www.w3.org/2000/svg" xmlns:xlink="http://www.w3.org/1999/xlink"><clipPath id="a"><path d="m.182434.136597h259.543v79.7729h-259.543z"/></clipPath><g clip-path="url(#a)"><g fill="#fff"><ellipse cx="38.6082" cy="37.6768" rx="34.381" ry="34.1884"/><path d="m94.0089 48.8486v-21.9134c0-.1273.0283-.2531.0822-.3685.054-.1155.1328-.2178.2306-.2997.2225-.1896.5076-.2891.8002-.2789h6.2011c1.836-.0869 3.638.5187 5.045 1.6956 1.264 1.1298 1.896 2.9122 1.896 5.347v.2939c0 2.4348-.643 4.2225-1.929 5.363-1.434 1.1869-3.264 1.7956-5.128 1.7057h-4.4254v8.4553c.0047.1446-.0303.2878-.1018.4141-.0708.1262-.1753.2307-.302.3024-.2932.1723-.6276.2633-.9681.2633-.3411 0-.6754-.091-.9687-.2633-.1314-.068-.242-.171-.3182-.2975s-.1153-.2715-.1139-.419zm2.7525-10.7259h4.4496c.585.0356 1.171-.0492 1.722-.2491s1.054-.5107 1.479-.9128c.822-.9624 1.227-2.2096 1.127-3.4686v-.4013c.1-1.2591-.305-2.5062-1.127-3.4687-.426-.401-.929-.7104-1.48-.909-.55-.1985-1.136-.2819-1.721-.2448h-4.4253z"/><path d="m117.893 42.912v-9.8159c0-2.4502.639-4.2485 1.917-5.3951 1.483-1.1068 3.287-1.7052 5.14-1.7052 1.854 0 3.658.5984 5.141 1.7052 1.289 1.1459 1.929 2.9449 1.936 5.3951v9.8189c0 2.4563-.645 4.2546-1.936 5.3951-1.481 1.1185-3.289 1.724-5.149 1.724-1.859 0-3.668-.6055-5.148-1.724-1.269-1.1489-1.901-2.9308-1.901-5.3981zm2.761 0c0 3.0874 1.424 4.6315 4.288 4.6315.585.0388 1.171-.0437 1.723-.2423.551-.1986 1.054-.5091 1.478-.9116.819-.9675 1.224-2.2162 1.128-3.4776v-9.8159c.049-.6242-.025-1.2521-.219-1.8478s-.504-1.1474-.914-1.6238c-.424-.4011-.928-.7106-1.479-.9092-.55-.1986-1.136-.2818-1.721-.2447-2.864 0-4.289 1.5432-4.289 4.6225z"/><path d="m141.77 46.4689c.01-.3686.142-.7236.375-1.0104.087-.1372.204-.253.343-.3385.138-.0856.295-.1386.457-.1551.29.0518.555.1974.753.4143.302.27.623.573.952.9031.446.4116.975.7236 1.552.9151.767.2854 1.582.4216 2.401.4013 1.202.0704 2.39-.2942 3.344-1.0264.418-.378.745-.8452.955-1.3664.211-.5213.3-1.0832.262-1.6438.022-.5361-.064-1.0711-.255-1.5731-.191-.5019-.481-.9603-.855-1.3476-.761-.7557-1.678-1.3377-2.688-1.7058-1.056-.3903-2.104-.7956-3.201-1.2572-1.062-.4456-1.992-1.152-2.704-2.0528-.773-1.0281-1.166-2.2904-1.11-3.573-.024-1.0325.201-2.0557.656-2.984.386-.7909.995-1.4533 1.752-1.9064.712-.4185 1.479-.7346 2.28-.9392.826-.2011 1.673-.2999 2.523-.2939 1.319-.0067 2.63.1892 3.888.5809 1.233.4014 1.857.9392 1.857 1.5913-.015.3503-.129.6893-.328.9784-.081.1566-.204.2884-.355.381s-.324.1426-.502.1447c-.504-.1572-.996-.3514-1.472-.5809-.959-.4234-1.999-.6353-3.048-.6211-1.122-.05-2.234.2265-3.201.7956-.413.2861-.744.6744-.961 1.1267-.216.4522-.309.9527-.271 1.452-.023.4638.062.9267.249 1.352.188.4253.473.8013.831 1.0982.804.6533 1.72 1.1548 2.705 1.4799 1.064.3743 2.119.7957 3.2 1.2733 1.08.518 2.002 1.3115 2.673 2.2997.781 1.1951 1.169 2.6023 1.11 4.0265 0 2.2435-.656 3.9301-1.968 5.076-1.462 1.1951-3.319 1.805-5.209 1.7108-1.725.0561-3.431-.3653-4.929-1.2171-1.389-.8167-2.061-1.6204-2.061-2.4081z"/><path d="m164.133 27.1975c-.006-.3024.087-.5984.265-.8439.076-.1192.183-.216.31-.2803.126-.0644.268-.094.41-.0859h13.345c.142-.0081.284.0215.41.0859.127.0643.234.1611.31.2803.175.247.267.5421.265.8439.006.3169-.086.6282-.265.8909-.074.1222-.18.2222-.307.2894-.127.0673-.27.0994-.413.0929h-5.24v20.3783c.004.1446-.031.2878-.102.414s-.175.2307-.302.3024c-.293.1723-.628.2633-.969.2633-.34 0-.675-.091-.968-.2633-.127-.0717-.231-.1762-.302-.3024s-.106-.2694-.102-.414v-20.3783h-5.321c-.142.0074-.283-.0225-.41-.0868-.126-.0644-.233-.1607-.31-.2794-.197-.2619-.304-.58-.304-.907z"/><path d="m188.794 48.8489v-21.4849c-.051-.3112.024-.6297.208-.8861s.463-.4299.776-.4826c.142-.024.288-.024.431 0 .873 0 1.6.5729 2.201 1.7268l5.145 9.8189 5.186-9.8189c.632-1.1539 1.359-1.7268 2.192-1.7268.312-.0497.631.0258.887.21s.429.462.479.7723v.0131c.02.1132.02.229 0 .3421v21.484c.004.1445-.031.2876-.101.4137-.072.1261-.176.2304-.302.3017-.294.1724-.628.2634-.969.2634s-.674-.091-.968-.2634c-.126-.0715-.23-.1759-.302-.302-.07-.126-.106-.269-.101-.4134v-17.0923l-4.953 9.2621c-.078.2253-.224.4217-.416.5637-.193.142-.424.2229-.664.2319-.23-.0161-.45-.1005-.631-.2424-.182-.1418-.316-.3346-.386-.5532l-4.952-9.4206v17.2829c.005.1446-.03.2877-.102.4139-.071.1262-.175.2308-.301.3025-.273.1894-.596.2942-.928.301-.342.0111-.679-.0801-.968-.2619-.143-.0664-.264-.1736-.346-.3081s-.122-.2902-.115-.4474z"/><path d="m215.716 48.6975c.006-.0907.027-.1796.064-.2629l6.713-21.484c.193-.6291.744-.9472 1.672-.9472.929 0 1.481.3181 1.672.9472l6.728 21.5873c-.008.0395-.008.0801 0 .1194.008.0313.008.0641 0 .0954-.009.1685-.063.3316-.158.4717-.094.1402-.225.2521-.379.3239-.36.2206-.777.3312-1.199.3181-.211.0284-.425-.0172-.604-.1291-.18-.1118-.315-.2826-.381-.4829l-1.44-4.7741h-8.593l-1.437 4.77c-.064.2062-.2.3829-.383.4982-.183.1151-.402.1613-.617.13-.394-.0004-.779-.1137-1.11-.3262-.163-.0754-.303-.1959-.4-.3475-.097-.1515-.149-.3276-.148-.5073zm4.76-6.5329h7.338l-3.673-12.1908z"/><path d="m242.083 48.849v-21.9135c0-.628.455-.9471 1.375-.9471.426-.0093.84.133 1.169.4013.389.3789.704.8267.928 1.3204l8.173 15.9143v-16.7059c-.002-.1423.034-.2826.105-.4061.071-.1236.174-.2258.298-.2962.298-.1596.63-.2432.968-.2432s.671.0836.969.2432c.124.0704.227.1726.3.296.071.1234.109.2637.108.4063v21.9305c.004.1451-.032.2885-.104.4148-.072.1262-.178.2305-.304.3016-.29.1815-.627.2731-.969.2628-.378-.0193-.743-.1466-1.051-.3667s-.546-.5237-.685-.8745l-8.529-16.3999v16.6619c.004.1444-.032.2873-.103.4134s-.175.2307-.301.303c-.293.1723-.628.2633-.969.2633-.34 0-.675-.091-.968-.2633-.128-.0708-.234-.1749-.306-.3012-.073-.1263-.108-.2699-.104-.4152z"/></g><path d="m60.1605 19.1383c-.0522.0254-.0989.0607-.1374.104-.0384.0432-.0679.0937-.0867.1483-.0187.0546-.0265.1124-.0227.17s.019.1139.0447.1656c.1147.2278.1602.4838.131.7368-.0293.253-.132.492-.2958.688-.0705.09-.1029.2037-.0904.317s.069.2174.1575.29c.0884.0727.2019.1084.3164.0994s.2209-.0619.2967-.1475c.2729-.3269.4442-.7256.493-1.1475.0488-.4217-.027-.8486-.218-1.2285-.0526-.1028-.1436-.181-.2537-.2176s-.2303-.0287-.3346.022z" fill="#ff6c37"/><path d="m43.1899.448287c-20.8974-2.659907-40.01281 11.998213-42.693201 32.748713-2.680389 20.7505 12.081001 39.72 32.979301 42.382s40.0149-11.9962 42.6932-32.7407-12.082-39.72609-32.9793-42.390013zm7.8552 23.627213c-.7078.0099-1.3837.2936-1.8839.7906l-14.156 14.0501-3.018-2.9981c13.9457-13.8112 16.4604-13.9437 19.0579-11.8426zm-15.4638 15.3424 14.1155-14.016c.3693-.3658.8696-.5711 1.3912-.5711.5217 0 1.022.2053 1.3913.5711.1902.1889.3393.4145.4382.663.0989.2484.1454.5143.1367.7813-.0087.2669-.0724.5293-.1873.7708-.1149.2416-.2785.4572-.4806.6335l-14.9372 13.0246zm1.0501 2.1873-3.497.7485c-.0414.0089-.0847.0042-.1232-.0133s-.0703-.047-.0905-.0839c-.0203-.0369-.0279-.0794-.0218-.1211.006-.0416.0256-.0801.0556-.1098l2.0497-2.0358zm-8.9134-1.4479 3.7275-3.7003 2.7936 2.7732-6.2926 1.3445c-.0527.0111-.1074.0049-.1563-.0175-.0488-.0223-.089-.0597-.1147-.1066-.0257-.047-.0354-.1008-.0278-.1536.0077-.0529.0324-.1018.0703-.1397zm-11.5887 19.1271c-.0454-.0052-.0884-.0231-.124-.0515-.0356-.0285-.0623-.0663-.0772-.1092s-.0174-.0891-.007-.1332c.0105-.0442.0332-.0846.0657-.1165l3.0068-2.986 3.8841 3.8559zm7.7106-3.9693c-.1432.0736-.2577.1925-.3254.3378-.0676.1454-.0848.3089-.0485.4649l.6448 2.7342c.0165.0832.006.1694-.0299.2463-.036.077-.0955.1406-.1702.1818-.0747.0413-.1606.058-.2454.0478-.0847-.0103-.1641-.0469-.2266-.1047l-3.9023-3.8739 11.9556-11.8698 5.7873-1.2342 2.7774 2.7573c-3.9933 3.4696-9.4491 6.9392-16.2168 10.3095zm16.7778-10.8192-2.6673-2.6469 14.9392-13.0267c.1387-.1208.2647-.2552.376-.4013-.472 4.2522-6.4513 10.2463-12.6439 16.0718zm11.6231-20.3954c-1.0475-1.0492-1.648-2.4583-1.6773-3.9352s.515-2.9083 1.52-3.9976c1.0051-1.0894 2.3938-1.753 3.8784-1.8534 1.4845-.1005 2.9511.37 4.0957 1.3139l-5.1274 5.091c-.0356.035-.0638.0766-.0831.1226-.0193.0458-.0293.0951-.0293.1448s.01.099.0293.1449c.0193.0458.0475.0875.0831.1225l3.964 3.9362c-1.0836.5309-2.3076.7111-3.4998.5151-1.1921-.196-2.2923-.7584-3.1456-1.6078zm8.1948 0c-.2625.2595-.5499.4927-.8581.6964l-3.8407-3.8128 4.8746-4.8382c1.0079 1.0929 1.552 2.5299 1.5189 4.0112-.0332 1.4815-.641 2.893-1.6968 3.9404z" fill="#ff6c37"/></g></svg>